<?xml version="1.0" encoding="utf-8"?>
<!-- Generator: Adobe Illustrator 19.0.0, SVG Export Plug-In . SVG Version: 6.00 Build 0)  -->
<svg version="1.1" id="Layer_1" xmlns="http://www.w3.org/2000/svg" xmlns:xlink="http://www.w3.org/1999/xlink" x="0px" y="0px"
	 viewBox="-346 216.3 149 164" style="enable-background:new -346 216.3 149 164;" xml:space="preserve">
<style type="text/css">
	.st0{fill:#FBFBFB;}
</style>
<g>
	<path d="M-196.9,243.9c0,27.1,0,54.2,0,81.4c-0.3,0.1-0.2,0.4-0.3,0.6c-1,5.2-3.8,9-8.8,10.8c-2.2,0.8-4.5,1.1-6.8,1.1
		c-14.9,0-29.8,0-44.7,0c-0.4,0-0.9,0-1.3,0c0,0.2,0,0.3,0,0.3c1.8,6.7,3.7,13.4,5.5,20.1c0.2,0.6,0.5,0.8,1.1,0.8c3,0,6.1,0,9.1,0
		c1.2,0,2.2,0.2,2.6,1.4c0.4,1.3-0.3,2-1.3,2.6c-19.7,0-39.4,0-59,0c-1-0.6-1.7-1.4-1.3-2.6c0.4-1.3,1.4-1.5,2.6-1.4c3,0,6,0,9,0
		c0.8,0,1.1-0.2,1.3-1c1.3-4.9,2.7-9.8,4-14.6c0.5-1.8,1-3.6,1.5-5.5c-0.6,0-1,0-1.5,0c-14.3,0-28.5,0-42.8,0c-1.7,0-3.4,0-5.1-0.2
		c-5.6-0.8-9.6-3.6-11.6-9c-0.4-1.1-0.7-2.2-1-3.2c0-27.2,0-54.4,0-81.6c0.4-0.4,0.3-0.9,0.5-1.4c1.3-5.5,4.6-9,10-10.5
		c0.7-0.2,1.4-0.1,2-0.6c41.1,0,82.2,0,123.4,0c0.1,0.3,0.3,0.2,0.5,0.2c5.8,0.8,9.8,3.8,11.7,9.4
		C-197.3,241.8-197.4,242.9-196.9,243.9z M-271.3,300.7c19.8,0,39.6,0,59.4,0c0.7,0,1.1,0,1.1-0.9c-0.2-16.7,0.3-33.4-0.3-50.1
		c-0.1-2.4-0.9-3.7-3.4-4.2c-1.2-0.3-2.5-0.4-3.7-0.4c-36.2,0.1-72.4-0.4-108.6,0.2c-2.2,0-4,1.1-4.4,2.8c-0.3,1.3-0.5,2.6-0.5,3.9
		c0,15.8,0,31.6,0,47.4c0,1.1,0.3,1.3,1.3,1.3C-310.7,300.7-291,300.7-271.3,300.7z M-271.2,315.4c-15.6,0-31.1,0-46.7,0
		c-7.6,0-15.1,0-22.7,0c-0.8,0-1.1,0.2-1.1,1c0.1,1.1,0,2.2,0,3.4c-0.1,2.2,0.1,4.3,0.6,6.4c1.3,5,5.2,7.2,9.8,7.2
		c39.3,0.1,78.6,0,117.9,0c1.2,0,2.4,0,3.7-0.2c5.2-0.9,7.8-4.1,8.4-8.8c0.4-2.6,0.2-5.2,0.3-7.7c0-1.1-0.3-1.3-1.3-1.3
		C-225.2,315.4-248.2,315.4-271.2,315.4z"/>
	<path class="st0" d="M-196.9,243.9c-0.5-1-0.5-2-0.8-3c-1.9-5.6-5.9-8.6-11.7-9.4c-0.2,0-0.4,0-0.5-0.2c4.1,0,8.2,0,12.3,0
		c0.6,0,0.7,0.1,0.7,0.7C-196.9,235.8-196.9,239.8-196.9,243.9z"/>
	<path class="st0" d="M-333.2,231.1c-0.6,0.5-1.3,0.4-2,0.6c-5.4,1.5-8.8,5-10,10.5c-0.1,0.5,0,1-0.5,1.4c0-3.9,0-7.9,0-11.8
		c0-0.6,0.1-0.7,0.7-0.7C-341.1,231.1-337.1,231.1-333.2,231.1z"/>
	<path d="M-271.2,315.4c23,0,46,0,69,0c1,0,1.4,0.1,1.3,1.3c-0.1,2.6,0.1,5.2-0.3,7.7c-0.6,4.7-3.2,7.9-8.4,8.8
		c-1.2,0.2-2.4,0.2-3.7,0.2c-39.3,0-78.6,0-117.9,0c-4.6,0-8.5-2.2-9.8-7.2c-0.5-2.1-0.7-4.3-0.6-6.4c0-1.1,0.1-2.2,0-3.4
		c-0.1-0.9,0.2-1,1.1-1c7.6,0,15.1,0,22.7,0C-302.3,315.4-286.8,315.4-271.2,315.4z M-271.3,329.5c2.7,0.4,5.6-2.4,5.6-5.5
		c-0.1-3-2.5-5.5-5.5-5.6c-3,0-5.5,2.5-5.6,5.5C-276.9,327.1-273.9,329.9-271.3,329.5z"/>
</g>
</svg>
